<mxfile host="app.diagrams.net" agent="Mozilla/5.0 (Windows NT 10.0; Win64; x64) AppleWebKit/537.36 (KHTML, like Gecko) Chrome/131.0.0.0 Safari/537.36" version="25.0.0">
  <diagram name="Страница — 1" id="Bxb1Rs1bzGT4tC1U_RNp">
    <mxGraphModel dx="1400" dy="1872" grid="1" gridSize="10" guides="1" tooltips="1" connect="1" arrows="1" fold="1" page="1" pageScale="1" pageWidth="827" pageHeight="1169" math="0" shadow="0">
      <root>
        <mxCell id="0" />
        <mxCell id="1" parent="0" />
        <mxCell id="_PsEA3eymtpkUiIahSB--5" style="edgeStyle=orthogonalEdgeStyle;rounded=0;orthogonalLoop=1;jettySize=auto;html=1;entryX=0.5;entryY=0;entryDx=0;entryDy=0;" edge="1" parent="1" source="_PsEA3eymtpkUiIahSB--2" target="_PsEA3eymtpkUiIahSB--3">
          <mxGeometry relative="1" as="geometry" />
        </mxCell>
        <mxCell id="_PsEA3eymtpkUiIahSB--7" value="chose the car" style="edgeLabel;html=1;align=center;verticalAlign=middle;resizable=0;points=[];" vertex="1" connectable="0" parent="_PsEA3eymtpkUiIahSB--5">
          <mxGeometry x="-0.1389" y="-1" relative="1" as="geometry">
            <mxPoint as="offset" />
          </mxGeometry>
        </mxCell>
        <mxCell id="_PsEA3eymtpkUiIahSB--2" value="Idle" style="rounded=1;whiteSpace=wrap;html=1;" vertex="1" parent="1">
          <mxGeometry x="160" y="80" width="120" height="60" as="geometry" />
        </mxCell>
        <mxCell id="_PsEA3eymtpkUiIahSB--6" style="edgeStyle=orthogonalEdgeStyle;rounded=0;orthogonalLoop=1;jettySize=auto;html=1;entryX=0.5;entryY=0;entryDx=0;entryDy=0;" edge="1" parent="1" source="_PsEA3eymtpkUiIahSB--3" target="_PsEA3eymtpkUiIahSB--4">
          <mxGeometry relative="1" as="geometry" />
        </mxCell>
        <mxCell id="_PsEA3eymtpkUiIahSB--8" value="order confirmed" style="edgeLabel;html=1;align=center;verticalAlign=middle;resizable=0;points=[];" vertex="1" connectable="0" parent="_PsEA3eymtpkUiIahSB--6">
          <mxGeometry x="-0.0556" relative="1" as="geometry">
            <mxPoint as="offset" />
          </mxGeometry>
        </mxCell>
        <mxCell id="_PsEA3eymtpkUiIahSB--3" value="CarSelected" style="rounded=1;whiteSpace=wrap;html=1;" vertex="1" parent="1">
          <mxGeometry x="160" y="200" width="120" height="60" as="geometry" />
        </mxCell>
        <mxCell id="_PsEA3eymtpkUiIahSB--12" style="edgeStyle=orthogonalEdgeStyle;rounded=0;orthogonalLoop=1;jettySize=auto;html=1;exitX=0.5;exitY=1;exitDx=0;exitDy=0;" edge="1" parent="1" source="_PsEA3eymtpkUiIahSB--4" target="_PsEA3eymtpkUiIahSB--11">
          <mxGeometry relative="1" as="geometry" />
        </mxCell>
        <mxCell id="_PsEA3eymtpkUiIahSB--13" value="car is arrived" style="edgeLabel;html=1;align=center;verticalAlign=middle;resizable=0;points=[];" vertex="1" connectable="0" parent="_PsEA3eymtpkUiIahSB--12">
          <mxGeometry x="-0.1333" y="-4" relative="1" as="geometry">
            <mxPoint as="offset" />
          </mxGeometry>
        </mxCell>
        <mxCell id="_PsEA3eymtpkUiIahSB--4" value="OrderConfirmed" style="rounded=1;whiteSpace=wrap;html=1;" vertex="1" parent="1">
          <mxGeometry x="160" y="320" width="120" height="60" as="geometry" />
        </mxCell>
        <mxCell id="_PsEA3eymtpkUiIahSB--9" style="edgeStyle=orthogonalEdgeStyle;rounded=0;orthogonalLoop=1;jettySize=auto;html=1;exitX=1;exitY=0.5;exitDx=0;exitDy=0;" edge="1" parent="1">
          <mxGeometry relative="1" as="geometry">
            <mxPoint x="280" y="350" as="sourcePoint" />
            <mxPoint x="282" y="93.60871688179348" as="targetPoint" />
            <Array as="points">
              <mxPoint x="320" y="350" />
              <mxPoint x="320" y="94" />
            </Array>
          </mxGeometry>
        </mxCell>
        <mxCell id="_PsEA3eymtpkUiIahSB--10" value="not confirmed" style="edgeLabel;html=1;align=center;verticalAlign=middle;resizable=0;points=[];" vertex="1" connectable="0" parent="_PsEA3eymtpkUiIahSB--9">
          <mxGeometry x="0.2086" y="-1" relative="1" as="geometry">
            <mxPoint as="offset" />
          </mxGeometry>
        </mxCell>
        <mxCell id="_PsEA3eymtpkUiIahSB--14" style="edgeStyle=orthogonalEdgeStyle;rounded=0;orthogonalLoop=1;jettySize=auto;html=1;exitX=1;exitY=0.5;exitDx=0;exitDy=0;" edge="1" parent="1" source="_PsEA3eymtpkUiIahSB--11">
          <mxGeometry relative="1" as="geometry">
            <mxPoint x="390" y="460.16666666666674" as="targetPoint" />
          </mxGeometry>
        </mxCell>
        <mxCell id="_PsEA3eymtpkUiIahSB--19" value="end" style="edgeLabel;html=1;align=center;verticalAlign=middle;resizable=0;points=[];" vertex="1" connectable="0" parent="_PsEA3eymtpkUiIahSB--14">
          <mxGeometry x="-0.2651" y="-1" relative="1" as="geometry">
            <mxPoint as="offset" />
          </mxGeometry>
        </mxCell>
        <mxCell id="_PsEA3eymtpkUiIahSB--11" value="CarArrived" style="rounded=1;whiteSpace=wrap;html=1;" vertex="1" parent="1">
          <mxGeometry x="160" y="430" width="120" height="60" as="geometry" />
        </mxCell>
        <mxCell id="_PsEA3eymtpkUiIahSB--15" value="" style="ellipse;html=1;shape=endState;fillColor=#000000;strokeColor=#ff0000;" vertex="1" parent="1">
          <mxGeometry x="384" y="445" width="30" height="30" as="geometry" />
        </mxCell>
        <mxCell id="_PsEA3eymtpkUiIahSB--16" value="" style="ellipse;html=1;shape=startState;fillColor=#000000;strokeColor=#ff0000;" vertex="1" parent="1">
          <mxGeometry x="205" y="-10" width="30" height="30" as="geometry" />
        </mxCell>
        <mxCell id="_PsEA3eymtpkUiIahSB--17" value="" style="edgeStyle=orthogonalEdgeStyle;html=1;verticalAlign=bottom;endArrow=open;endSize=8;strokeColor=#ff0000;rounded=0;" edge="1" source="_PsEA3eymtpkUiIahSB--16" parent="1">
          <mxGeometry relative="1" as="geometry">
            <mxPoint x="220" y="80" as="targetPoint" />
          </mxGeometry>
        </mxCell>
        <mxCell id="_PsEA3eymtpkUiIahSB--18" value="start" style="edgeLabel;html=1;align=center;verticalAlign=middle;resizable=0;points=[];" vertex="1" connectable="0" parent="_PsEA3eymtpkUiIahSB--17">
          <mxGeometry x="-0.1571" y="1" relative="1" as="geometry">
            <mxPoint as="offset" />
          </mxGeometry>
        </mxCell>
        <mxCell id="_PsEA3eymtpkUiIahSB--20" value="" style="ellipse;html=1;shape=startState;fillColor=#000000;strokeColor=#ff0000;" vertex="1" parent="1">
          <mxGeometry x="750" y="20" width="30" height="30" as="geometry" />
        </mxCell>
        <mxCell id="_PsEA3eymtpkUiIahSB--21" value="" style="edgeStyle=orthogonalEdgeStyle;html=1;verticalAlign=bottom;endArrow=open;endSize=8;strokeColor=#ff0000;rounded=0;" edge="1" source="_PsEA3eymtpkUiIahSB--20" parent="1">
          <mxGeometry relative="1" as="geometry">
            <mxPoint x="765" y="110" as="targetPoint" />
          </mxGeometry>
        </mxCell>
        <mxCell id="_PsEA3eymtpkUiIahSB--25" style="edgeStyle=orthogonalEdgeStyle;rounded=0;orthogonalLoop=1;jettySize=auto;html=1;exitX=0.5;exitY=1;exitDx=0;exitDy=0;entryX=0.5;entryY=0;entryDx=0;entryDy=0;" edge="1" parent="1" source="_PsEA3eymtpkUiIahSB--22" target="_PsEA3eymtpkUiIahSB--23">
          <mxGeometry relative="1" as="geometry" />
        </mxCell>
        <mxCell id="_PsEA3eymtpkUiIahSB--46" value="chosing item" style="edgeLabel;html=1;align=center;verticalAlign=middle;resizable=0;points=[];" vertex="1" connectable="0" parent="_PsEA3eymtpkUiIahSB--25">
          <mxGeometry x="-0.068" y="-3" relative="1" as="geometry">
            <mxPoint as="offset" />
          </mxGeometry>
        </mxCell>
        <mxCell id="_PsEA3eymtpkUiIahSB--22" value="ChoseItem" style="rounded=1;whiteSpace=wrap;html=1;" vertex="1" parent="1">
          <mxGeometry x="707" y="110" width="120" height="60" as="geometry" />
        </mxCell>
        <mxCell id="_PsEA3eymtpkUiIahSB--26" style="edgeStyle=orthogonalEdgeStyle;rounded=0;orthogonalLoop=1;jettySize=auto;html=1;exitX=0.5;exitY=1;exitDx=0;exitDy=0;entryX=0.5;entryY=0;entryDx=0;entryDy=0;" edge="1" parent="1" source="_PsEA3eymtpkUiIahSB--23" target="_PsEA3eymtpkUiIahSB--24">
          <mxGeometry relative="1" as="geometry" />
        </mxCell>
        <mxCell id="_PsEA3eymtpkUiIahSB--47" value="making an order" style="edgeLabel;html=1;align=center;verticalAlign=middle;resizable=0;points=[];" vertex="1" connectable="0" parent="_PsEA3eymtpkUiIahSB--26">
          <mxGeometry x="-0.3933" y="-3" relative="1" as="geometry">
            <mxPoint as="offset" />
          </mxGeometry>
        </mxCell>
        <mxCell id="_PsEA3eymtpkUiIahSB--23" value="MakingOrder" style="rounded=1;whiteSpace=wrap;html=1;" vertex="1" parent="1">
          <mxGeometry x="707" y="230" width="120" height="60" as="geometry" />
        </mxCell>
        <mxCell id="_PsEA3eymtpkUiIahSB--29" style="edgeStyle=orthogonalEdgeStyle;rounded=0;orthogonalLoop=1;jettySize=auto;html=1;exitX=0.5;exitY=1;exitDx=0;exitDy=0;entryX=0.5;entryY=0;entryDx=0;entryDy=0;" edge="1" parent="1" source="_PsEA3eymtpkUiIahSB--24" target="_PsEA3eymtpkUiIahSB--27">
          <mxGeometry relative="1" as="geometry" />
        </mxCell>
        <mxCell id="_PsEA3eymtpkUiIahSB--48" value="payment for order" style="edgeLabel;html=1;align=center;verticalAlign=middle;resizable=0;points=[];" vertex="1" connectable="0" parent="_PsEA3eymtpkUiIahSB--29">
          <mxGeometry x="-0.1184" y="-2" relative="1" as="geometry">
            <mxPoint as="offset" />
          </mxGeometry>
        </mxCell>
        <mxCell id="_PsEA3eymtpkUiIahSB--24" value="PaymentOrder" style="rounded=1;whiteSpace=wrap;html=1;" vertex="1" parent="1">
          <mxGeometry x="707" y="350" width="120" height="60" as="geometry" />
        </mxCell>
        <mxCell id="_PsEA3eymtpkUiIahSB--32" style="edgeStyle=orthogonalEdgeStyle;rounded=0;orthogonalLoop=1;jettySize=auto;html=1;" edge="1" parent="1" source="_PsEA3eymtpkUiIahSB--27" target="_PsEA3eymtpkUiIahSB--28">
          <mxGeometry relative="1" as="geometry" />
        </mxCell>
        <mxCell id="_PsEA3eymtpkUiIahSB--49" value="" style="edgeStyle=orthogonalEdgeStyle;rounded=0;orthogonalLoop=1;jettySize=auto;html=1;" edge="1" parent="1" source="_PsEA3eymtpkUiIahSB--27" target="_PsEA3eymtpkUiIahSB--28">
          <mxGeometry relative="1" as="geometry" />
        </mxCell>
        <mxCell id="_PsEA3eymtpkUiIahSB--50" value="payment confirmed" style="edgeLabel;html=1;align=center;verticalAlign=middle;resizable=0;points=[];" vertex="1" connectable="0" parent="_PsEA3eymtpkUiIahSB--49">
          <mxGeometry x="-0.0978" y="1" relative="1" as="geometry">
            <mxPoint as="offset" />
          </mxGeometry>
        </mxCell>
        <mxCell id="_PsEA3eymtpkUiIahSB--27" value="PaymentConfirm" style="rounded=1;whiteSpace=wrap;html=1;" vertex="1" parent="1">
          <mxGeometry x="707" y="460" width="120" height="60" as="geometry" />
        </mxCell>
        <mxCell id="_PsEA3eymtpkUiIahSB--34" style="edgeStyle=orthogonalEdgeStyle;rounded=0;orthogonalLoop=1;jettySize=auto;html=1;" edge="1" parent="1" source="_PsEA3eymtpkUiIahSB--28" target="_PsEA3eymtpkUiIahSB--33">
          <mxGeometry relative="1" as="geometry" />
        </mxCell>
        <mxCell id="_PsEA3eymtpkUiIahSB--51" value="order processing" style="edgeLabel;html=1;align=center;verticalAlign=middle;resizable=0;points=[];" vertex="1" connectable="0" parent="_PsEA3eymtpkUiIahSB--34">
          <mxGeometry x="-0.2029" relative="1" as="geometry">
            <mxPoint as="offset" />
          </mxGeometry>
        </mxCell>
        <mxCell id="_PsEA3eymtpkUiIahSB--28" value="OrderProcessing" style="rounded=1;whiteSpace=wrap;html=1;" vertex="1" parent="1">
          <mxGeometry x="707" y="585" width="120" height="60" as="geometry" />
        </mxCell>
        <mxCell id="_PsEA3eymtpkUiIahSB--45" style="edgeStyle=orthogonalEdgeStyle;rounded=0;orthogonalLoop=1;jettySize=auto;html=1;entryX=0.5;entryY=0;entryDx=0;entryDy=0;" edge="1" parent="1" source="_PsEA3eymtpkUiIahSB--33" target="_PsEA3eymtpkUiIahSB--43">
          <mxGeometry relative="1" as="geometry" />
        </mxCell>
        <mxCell id="_PsEA3eymtpkUiIahSB--33" value="SendOrder" style="rounded=1;whiteSpace=wrap;html=1;" vertex="1" parent="1">
          <mxGeometry x="707" y="700" width="120" height="60" as="geometry" />
        </mxCell>
        <mxCell id="_PsEA3eymtpkUiIahSB--37" style="edgeStyle=orthogonalEdgeStyle;rounded=0;orthogonalLoop=1;jettySize=auto;html=1;exitX=1;exitY=0.5;exitDx=0;exitDy=0;entryX=1;entryY=0.5;entryDx=0;entryDy=0;" edge="1" parent="1" source="_PsEA3eymtpkUiIahSB--27" target="_PsEA3eymtpkUiIahSB--23">
          <mxGeometry relative="1" as="geometry">
            <mxPoint x="830" y="380" as="targetPoint" />
            <Array as="points">
              <mxPoint x="890" y="490" />
              <mxPoint x="890" y="260" />
            </Array>
          </mxGeometry>
        </mxCell>
        <mxCell id="_PsEA3eymtpkUiIahSB--38" value="not confirm" style="edgeLabel;html=1;align=center;verticalAlign=middle;resizable=0;points=[];" vertex="1" connectable="0" parent="_PsEA3eymtpkUiIahSB--37">
          <mxGeometry x="0.106" y="3" relative="1" as="geometry">
            <mxPoint as="offset" />
          </mxGeometry>
        </mxCell>
        <mxCell id="_PsEA3eymtpkUiIahSB--43" value="" style="ellipse;html=1;shape=endState;fillColor=#000000;strokeColor=#ff0000;" vertex="1" parent="1">
          <mxGeometry x="752" y="830" width="30" height="30" as="geometry" />
        </mxCell>
      </root>
    </mxGraphModel>
  </diagram>
</mxfile>
